<svg xmlns="http://www.w3.org/2000/svg" xmlns:xlink="http://www.w3.org/1999/xlink" width="140" zoomAndPan="magnify" viewBox="0 0 104.88 90.749999" height="121" preserveAspectRatio="xMidYMid meet" version="1.0">
  <defs>
    <clipPath id="fee7ea2cc5">
      <path d="M 0.679688 0.253906 L 104.351562 0.253906 L 104.351562 89.816406 L 0.679688 89.816406 Z M 0.679688 0.253906 " clip-rule="nonzero"/>
    </clipPath>
    <clipPath id="352a88cd36">
      <path d="M 10.914062 55 L 36.066406 55 L 36.066406 80 L 10.914062 80 Z M 10.914062 55 " clip-rule="nonzero"/>
    </clipPath>
  </defs>
  <g clip-path="url(#fee7ea2cc5)">
    <path fill="#2c6871" d="M 74.609375 9.242188 L 87.382812 9.242188 C 87.855469 9.242188 88.324219 9.285156 88.785156 9.378906 C 89.246094 9.46875 89.695312 9.605469 90.132812 9.785156 C 90.566406 9.96875 90.980469 10.1875 91.371094 10.449219 C 91.765625 10.710938 92.125 11.007812 92.460938 11.339844 C 92.792969 11.671875 93.089844 12.035156 93.351562 12.425781 C 93.613281 12.816406 93.835938 13.230469 94.015625 13.664062 C 94.195312 14.101562 94.332031 14.546875 94.421875 15.011719 C 94.515625 15.472656 94.5625 15.9375 94.5625 16.40625 L 94.5625 32.476562 C 94.5625 33.683594 94.5625 34.589844 93.957031 35.796875 L 95.769531 35.796875 C 101.90625 35.796875 104.234375 39.417969 104.234375 43.945312 L 104.234375 55.113281 C 104.234375 59.636719 102.511719 63.5625 95.769531 63.5625 L 93.957031 63.5625 C 94.5625 64.464844 94.5625 65.671875 94.5625 66.882812 L 94.5625 82.640625 C 94.5625 83.109375 94.515625 83.578125 94.421875 84.039062 C 94.332031 84.5 94.195312 84.945312 94.015625 85.382812 C 93.835938 85.816406 93.613281 86.230469 93.351562 86.621094 C 93.089844 87.011719 92.792969 87.375 92.460938 87.707031 C 92.125 88.039062 91.761719 88.335938 91.371094 88.597656 C 90.980469 88.859375 90.566406 89.078125 90.128906 89.257812 C 89.695312 89.4375 89.246094 89.574219 88.785156 89.667969 C 88.320312 89.757812 87.855469 89.804688 87.382812 89.804688 L 6.996094 89.804688 C 6.589844 89.804688 6.1875 89.761719 5.789062 89.683594 C 5.390625 89.601562 5.003906 89.484375 4.628906 89.328125 C 4.25 89.171875 3.894531 88.984375 3.558594 88.757812 C 3.21875 88.53125 2.90625 88.277344 2.617188 87.988281 C 2.332031 87.703125 2.074219 87.390625 1.847656 87.054688 C 1.621094 86.71875 1.429688 86.363281 1.273438 85.988281 C 1.117188 85.613281 0.996094 85.226562 0.917969 84.828125 C 0.835938 84.429688 0.792969 84.03125 0.792969 83.625 L 0.792969 16.710938 C 0.792969 16.21875 0.84375 15.734375 0.9375 15.253906 C 1.035156 14.773438 1.179688 14.308594 1.367188 13.855469 C 1.554688 13.402344 1.785156 12.972656 2.058594 12.566406 C 2.332031 12.160156 2.640625 11.78125 2.988281 11.433594 C 3.335938 11.089844 3.714844 10.78125 4.121094 10.507812 C 4.527344 10.234375 4.960938 10.003906 5.414062 9.816406 C 5.867188 9.628906 6.332031 9.484375 6.8125 9.386719 C 7.292969 9.292969 7.78125 9.242188 8.273438 9.242188 L 48.910156 9.242188 L 67.65625 0.488281 C 68.863281 -0.113281 70.375 0.488281 70.980469 1.695312 Z M 74.609375 9.242188 " fill-opacity="1" fill-rule="nonzero"/>
  </g>
  <path fill="#cbd2d8" d="M 75.320312 35.925781 L 87.304688 35.871094 C 88.515625 35.570312 89.722656 33.988281 89.722656 32.476562 L 89.722656 24.027344 L 14.746094 24.027344 C 13.234375 24.027344 12.027344 22.820312 12.027344 21.613281 C 12.027344 21.253906 12.09375 20.90625 12.234375 20.574219 C 12.371094 20.242188 12.566406 19.949219 12.824219 19.691406 C 13.078125 19.4375 13.371094 19.242188 13.707031 19.105469 C 14.039062 18.964844 14.386719 18.898438 14.746094 18.898438 L 28.65625 18.898438 L 38.328125 14.371094 L 9.257812 14.371094 C 8.816406 14.375 8.394531 14.460938 7.988281 14.632812 C 7.582031 14.800781 7.226562 15.042969 6.914062 15.351562 C 6.601562 15.664062 6.363281 16.019531 6.191406 16.425781 C 6.023438 16.828125 5.933594 17.25 5.929688 17.691406 L 5.929688 81.667969 C 5.933594 82.105469 6.023438 82.527344 6.191406 82.933594 C 6.363281 83.339844 6.601562 83.695312 6.914062 84.007812 C 7.226562 84.316406 7.582031 84.558594 7.988281 84.726562 C 8.394531 84.898438 8.816406 84.984375 9.257812 84.988281 L 86.398438 84.988281 C 86.839844 84.984375 87.261719 84.898438 87.667969 84.726562 C 88.070312 84.558594 88.429688 84.316406 88.742188 84.007812 C 89.050781 83.695312 89.292969 83.339844 89.464844 82.933594 C 89.632812 82.527344 89.71875 82.105469 89.722656 81.667969 L 89.722656 66.882812 C 89.71875 66.441406 89.632812 66.019531 89.464844 65.613281 C 89.292969 65.210938 89.050781 64.851562 88.742188 64.542969 C 88.429688 64.230469 88.070312 63.992188 87.667969 63.820312 C 87.261719 63.652344 86.839844 63.566406 86.398438 63.5625 L 71.085938 63.5625 C 64.339844 63.5625 62.921875 59.941406 62.921875 55.113281 L 62.921875 43.945312 C 62.921875 36.402344 68.0625 35.925781 75.320312 35.925781 Z M 75.320312 35.925781 " fill-opacity="1" fill-rule="nonzero"/>
  <path fill="#8fffa8" d="M 40.445312 18.898438 L 73.699219 18.898438 L 67.351562 6.226562 Z M 40.445312 18.898438 " fill-opacity="1" fill-rule="nonzero"/>
  <path fill="#b0bbc4" d="M 79.445312 18.898438 L 89.722656 18.898438 L 89.722656 17.691406 C 89.71875 17.25 89.632812 16.828125 89.464844 16.425781 C 89.292969 16.019531 89.050781 15.664062 88.742188 15.351562 C 88.429688 15.042969 88.070312 14.800781 87.667969 14.632812 C 87.261719 14.460938 86.839844 14.375 86.398438 14.371094 L 77.027344 14.371094 Z M 79.445312 18.898438 " fill-opacity="1" fill-rule="nonzero"/>
  <path fill="#cbd2d8" d="M 95.769531 40.925781 L 71.085938 40.925781 C 69.273438 40.925781 68.0625 42.132812 68.0625 43.945312 L 68.0625 55.113281 C 68.0625 56.921875 69.273438 58.429688 71.085938 58.429688 L 95.769531 58.429688 C 96.210938 58.425781 96.632812 58.339844 97.039062 58.171875 C 97.445312 58 97.800781 57.761719 98.113281 57.449219 C 98.425781 57.140625 98.664062 56.78125 98.835938 56.378906 C 99.003906 55.972656 99.09375 55.550781 99.097656 55.113281 L 99.097656 43.945312 C 99.097656 42.132812 97.585938 40.925781 95.769531 40.925781 Z M 95.769531 40.925781 " fill-opacity="1" fill-rule="nonzero"/>
  <path fill="#2c6871" d="M 81.785156 49.679688 C 81.785156 49.984375 81.753906 50.285156 81.695312 50.585938 C 81.636719 50.882812 81.546875 51.175781 81.429688 51.457031 C 81.3125 51.738281 81.171875 52.007812 81 52.257812 C 80.832031 52.511719 80.636719 52.746094 80.421875 52.964844 C 80.207031 53.179688 79.972656 53.371094 79.71875 53.539062 C 79.464844 53.710938 79.195312 53.851562 78.914062 53.96875 C 78.628906 54.085938 78.339844 54.175781 78.039062 54.234375 C 77.742188 54.292969 77.4375 54.324219 77.132812 54.324219 C 76.828125 54.324219 76.523438 54.292969 76.226562 54.234375 C 75.925781 54.175781 75.632812 54.085938 75.351562 53.96875 C 75.070312 53.851562 74.800781 53.710938 74.546875 53.539062 C 74.292969 53.371094 74.058594 53.179688 73.84375 52.964844 C 73.625 52.746094 73.433594 52.511719 73.265625 52.257812 C 73.09375 52.007812 72.949219 51.738281 72.832031 51.457031 C 72.71875 51.175781 72.628906 50.882812 72.570312 50.585938 C 72.507812 50.285156 72.480469 49.984375 72.480469 49.679688 C 72.480469 49.375 72.507812 49.074219 72.570312 48.773438 C 72.628906 48.472656 72.71875 48.183594 72.832031 47.902344 C 72.949219 47.621094 73.09375 47.351562 73.265625 47.097656 C 73.433594 46.84375 73.625 46.609375 73.84375 46.394531 C 74.058594 46.179688 74.292969 45.988281 74.546875 45.816406 C 74.800781 45.648438 75.070312 45.503906 75.351562 45.386719 C 75.632812 45.273438 75.925781 45.183594 76.226562 45.125 C 76.523438 45.066406 76.828125 45.035156 77.132812 45.035156 C 77.4375 45.035156 77.742188 45.066406 78.039062 45.125 C 78.339844 45.183594 78.628906 45.273438 78.914062 45.386719 C 79.195312 45.503906 79.464844 45.648438 79.71875 45.816406 C 79.972656 45.988281 80.207031 46.179688 80.421875 46.394531 C 80.636719 46.609375 80.832031 46.84375 81 47.097656 C 81.171875 47.351562 81.3125 47.621094 81.429688 47.902344 C 81.546875 48.183594 81.636719 48.472656 81.695312 48.773438 C 81.753906 49.074219 81.785156 49.375 81.785156 49.679688 Z M 81.785156 49.679688 " fill-opacity="1" fill-rule="nonzero"/>
  <g clip-path="url(#352a88cd36)">
    <path fill="#2c6871" d="M 33.605469 79.949219 L 13.375 79.949219 C 13.046875 79.949219 12.734375 79.886719 12.433594 79.761719 C 12.132812 79.632812 11.867188 79.453125 11.636719 79.222656 C 11.40625 78.988281 11.226562 78.71875 11.101562 78.414062 C 10.976562 78.109375 10.914062 77.789062 10.914062 77.460938 L 10.914062 57.503906 C 10.914062 57.171875 10.976562 56.855469 11.101562 56.550781 C 11.226562 56.242188 11.40625 55.976562 11.636719 55.742188 C 11.867188 55.507812 12.132812 55.328125 12.433594 55.199219 C 12.734375 55.074219 13.046875 55.011719 13.375 55.011719 C 13.699219 55.011719 14.015625 55.074219 14.316406 55.199219 C 14.617188 55.328125 14.882812 55.507812 15.113281 55.742188 C 15.34375 55.976562 15.523438 56.242188 15.648438 56.550781 C 15.773438 56.855469 15.835938 57.171875 15.835938 57.503906 L 15.835938 74.96875 L 33.605469 74.96875 C 33.933594 74.96875 34.246094 75.03125 34.546875 75.160156 C 34.851562 75.285156 35.117188 75.464844 35.347656 75.699219 C 35.578125 75.933594 35.753906 76.203125 35.878906 76.507812 C 36.003906 76.8125 36.066406 77.128906 36.066406 77.460938 C 36.066406 77.789062 36.003906 78.109375 35.878906 78.414062 C 35.753906 78.71875 35.578125 78.988281 35.347656 79.222656 C 35.117188 79.453125 34.851562 79.632812 34.546875 79.761719 C 34.246094 79.886719 33.933594 79.949219 33.605469 79.949219 Z M 33.605469 79.949219 " fill-opacity="1" fill-rule="nonzero"/>
  </g>
</svg>
